# xmcd CD database file
#
# Track frame offsets:
#	150
#	13621
#	28916
#	48819
#	67204
#	81851
#	97836
#	110494
#	126674
#	140486
#	154627
#	171527
#
# Disc length: 2468 seconds
#
# Revision: 0
# Processed by: cddbd v1.5.2PL0 Copyright (c) Steve Scherf et al.
# Submitted via: CDex 1.79
#
DISCID=a609a20c
DTITLE=Jimmy C. Williams - "Ride The Trains" With Jimmy C.
DYEAR=2012
DGENRE=Country
TTITLE0=Ride The Train  
TTITLE1=Freight Train Blues 
TTITLE2=Orange Blossom Special 
TTITLE3=Freight Train Freight Train 
TTITLE4=Mystery Train  
TTITLE5=Riding On The New River Train
TTITLE6=Wreck Of The Old 97 
TTITLE7=Waiting For A Train 
TTITLE8=500 Miles
TTITLE9=I'm So Lonesome I Could Cry 
TTITLE10=Wabash Cannonball 
TTITLE11=Hey Porter 
EXTD=YEAR: 2012
EXTT0=
EXTT1=
EXTT2=
EXTT3=
EXTT4=
EXTT5=
EXTT6=
EXTT7=
EXTT8=
EXTT9=
EXTT10=
EXTT11=
PLAYORDER=
